<svg width="16" height="25" viewBox="0 0 16 25" fill="none" xmlns="http://www.w3.org/2000/svg">
<path d="M14.3162 4.04019C13.714 3.39338 12.9924 2.87531 12.1931 2.51599C11.3939 2.15667 10.5329 1.96325 9.66005 1.94695V0.5H6.34229V20.0723C5.51872 19.9989 4.75039 19.6178 4.18386 19.0016C3.56344 18.2338 3.24427 17.2573 3.28844 16.2621V2.43891L2.01601 3.67363C1.3354 4.38563 0.80578 5.23378 0.460319 6.16498C0.114859 7.09617 -0.039 8.09034 0.00838319 9.08521V16.0113C-0.0597774 17.8505 0.545228 19.6495 1.70497 21.0563C2.30495 21.7008 3.02354 22.2176 3.8194 22.5768C4.61525 22.936 5.47266 23.1307 6.34229 23.1495V24.5H9.6412V23.1592C11.4017 23.1146 13.0743 22.3627 14.2974 21.0659C15.461 19.6576 16.0663 17.854 15.994 16.0113V9.08521C16.0674 7.2485 15.4692 5.44974 14.3162 4.04019ZM12.7139 8.86334V16.291C12.7658 17.2991 12.4462 18.2905 11.8185 19.0691C11.244 19.6695 10.4782 20.0392 9.66005 20.1109V5.02412C10.4836 5.09756 11.252 5.47871 11.8185 6.09486C12.4389 6.86261 12.7581 7.83912 12.7139 8.83441V8.86334Z" fill="white"/>
</svg>
